<svg viewBox="0 0 1313 383" xmlns:xlink="http://www.w3.org/1999/xlink" xmlns="http://www.w3.org/2000/svg" width="1313" height="383" fill="none" id="svg-1969069252_5711"><path d="M424.864 211.466c0 67.48-82.355 94.901-184.609 94.901S54.447 278.946 54.447 211.466c0-67.48 82.954-122.084 185.208-122.084 102.255 0 185.209 54.723 185.209 122.084Z" fill="#24A95A"></path><path d="M406.057 64.38c0-35.528-29.01-64.38-64.733-64.38-18.577 0-35.318 7.811-47.118 20.252-1.827 1.927-4.498 2.866-7.102 2.34a238.196 238.196 0 0 0-47.075-4.709c-16.312 0-32.124 1.591-47.071 4.682-2.606.54-5.288-.384-7.127-2.308C173.937 7.813 157.203 0 138.734 0c-35.723 0-64.733 28.852-64.733 64.38a63.869 63.869 0 0 0 6.77 28.702c1.033 2.067 1.137 4.488.243 6.62-4.189 9.981-6.414 20.519-6.414 31.443 0 62.592 74.084 113.261 165.429 113.261s165.429-50.669 165.429-113.261c0-10.924-2.225-21.462-6.414-31.443-.894-2.132-.79-4.553.244-6.62a63.878 63.878 0 0 0 6.769-28.702Z" fill="#32DA6D"></path><path d="M133.451 100.095c21.847 0 39.559-17.615 39.559-39.344 0-21.729-17.712-39.343-39.559-39.343-21.848 0-39.56 17.614-39.56 39.343 0 21.729 17.712 39.344 39.56 39.344Zm211.044 0c21.848 0 39.559-17.615 39.559-39.344 0-21.729-17.711-39.343-39.559-39.343s-39.559 17.614-39.559 39.343c0 21.729 17.711 39.344 39.559 39.344Z" fill="#FFFFFF"></path><path d="M112.458 301.512c8.511 0 15.225-7.392 14.265-15.738-3.476-29.567-18.221-93.589-83.073-132.098-71.093-42.227-37.27 70.04-23.132 110.942 2.86 8.273-.457 17.46-8.049 21.818l-4.662 2.677c-5.994 3.457-3.477 12.399 3.356 12.399h101.295Zm257.639 0c-7.672 0-13.666-7.392-12.827-15.738 2.997-29.448 16.423-93.589 74.923-132.098 64.778-42.555 33.248 71.792 20.662 111.882-2.469 7.864.57 16.424 7.533 20.836l4.291 2.719c5.395 3.457 3.117 12.399-2.997 12.399h-91.585Z" fill="#32DA6D"></path><path d="M133.505 84.282c13.033 0 23.599-10.565 23.599-23.599 0-13.033-10.566-23.599-23.599-23.599-13.034 0-23.599 10.566-23.599 23.6 0 13.033 10.565 23.598 23.599 23.598Zm211.044 0c13.033 0 23.599-10.565 23.599-23.599 0-13.033-10.566-23.599-23.599-23.599-13.034 0-23.599 10.566-23.599 23.6 0 13.033 10.565 23.598 23.599 23.598Zm-52.152 67.707c5.851.504 10.273 5.695 8.8 11.379a63.373 63.373 0 0 1-42.207 44.52 63.396 63.396 0 0 1-24.579 2.728 63.398 63.398 0 0 1-43.061-22.337 63.38 63.38 0 0 1-14.866-39.162c-.102-3.913 3.374-6.809 7.274-6.474l56.085 4.825 52.554 4.521Z" fill="#092511"></path><path d="M602.121 262.475c0 16.05-13.011 29.061-29.061 29.061s-29.061-13.011-29.061-29.061V36.026c0-16.05 13.011-29.06 29.061-29.06s29.061 13.01 29.061 29.06v226.449Z" fill="#000"></path><path d="M572.993 291.992c-16.013 0-28.994-12.981-28.994-28.994 0-16.013 12.981-28.994 28.994-28.994h93.371c16.013 0 28.994 12.981 28.994 28.994 0 16.013-12.981 28.994-28.994 28.994h-93.371Zm219.746 6.124c-18.87 0-35.728-4.277-50.573-12.832-14.594-8.555-26.168-20.255-34.723-35.1-8.303-15.096-12.454-32.332-12.454-51.706 0-19.625 4.026-36.86 12.077-51.705 8.303-15.097 19.751-26.923 34.345-35.478 14.593-8.554 31.325-12.832 50.196-12.832 19.877 0 36.987 4.152 51.329 12.455 14.342 8.052 25.412 19.626 33.212 34.722 7.8 14.845 11.7 32.584 11.7 53.216 0 8.14-6.579 14.75-14.719 14.787l-129.219.601c-10.058.047-18.176-8.205-17.964-18.26.204-9.729 8.15-17.509 17.88-17.509h59.523c14.776 0 27.813-14.195 16.564-23.777-6.793-6.038-16.103-9.058-27.928-9.058-9.813 0-17.865 1.887-24.155 5.662-6.039 3.774-10.568 9.686-13.587 17.738-3.019 7.8-4.529 17.864-4.529 30.193 0 17.613 3.523 30.697 10.568 39.251 7.296 8.304 18.493 12.455 33.59 12.455 11.071 0 20.254-1.887 27.551-5.661.298-.154.592-.311.881-.47 10.779-5.933 21.524-15.382 33.827-15.382 17.058 0 30.469 15.905 21.057 30.13-5.011 7.573-11.522 14.262-19.533 20.067-17.361 12.329-39 18.493-64.916 18.493Zm174.165-1.217c-19.877 0-35.728-5.41-47.554-16.229-11.574-11.071-17.361-25.79-17.361-44.158 0-17.361 5.913-31.199 17.738-41.515 12.078-10.316 29.439-16.355 52.084-18.116l49.829-3.915a3.266 3.266 0 0 0 3.01-3.256c0-6.29-1.26-11.448-3.78-15.474-2.51-4.278-6.16-7.423-10.94-9.436-4.53-2.264-10.316-3.396-17.361-3.396-12.329 0-21.765 2.264-28.307 6.793-10.169 7.322-19.593 19.626-32.124 19.626h-1.466c-13.34 0-24.77-11.166-20.238-23.712a59.495 59.495 0 0 1 7.029-13.652c7.297-10.568 17.613-18.745 30.948-24.532 13.587-5.787 29.313-8.68 47.177-8.68 18.372 0 33.842 3.27 46.422 9.812 12.83 6.542 22.52 16.103 29.06 28.683 6.79 12.581 10.19 27.929 10.19 46.045v82.608c0 15.242-12.35 27.597-27.6 27.597h-19.27a5.177 5.177 0 0 1-5.12-4.405c-.81-5.334-11.4-7.657-15.73-4.441-2.61 1.936-5.57 3.752-8.89 5.45-11.075 5.535-23.656 8.303-37.746 8.303Zm20.381-43.026c11.071 0 20.125-2.642 27.175-7.925 7.04-5.536 10.57-13.713 10.57-24.532 0-5.475-4.7-9.769-10.15-9.28l-19.292 1.731c-12.581 1.007-21.513 3.146-26.797 6.416-5.032 3.02-7.548 7.549-7.548 13.587 0 6.794 2.139 11.826 6.416 15.097 4.277 3.271 10.819 4.906 19.626 4.906Zm146.765 128.699c-16.05 0-29.06-13.011-29.06-29.061V132.434c0-16.099 13.05-29.149 29.15-29.149h20.14a6.19 6.19 0 0 1 6.14 5.392c.76 5.821 9.45 8.05 14.04 4.391 3.72-2.965 7.99-5.598 12.81-7.896 11.07-5.284 23.27-7.926 36.6-7.926 17.62 0 33.09 3.9 46.43 11.7 13.33 7.8 23.77 18.997 31.32 33.59 7.55 14.342 11.32 31.703 11.32 52.083 0 19.877-3.52 37.616-10.56 53.216-6.8 15.348-16.86 27.425-30.2 36.232-13.08 8.806-29.06 13.209-47.93 13.209-13.08 0-25.16-2.264-36.23-6.793-9.33-3.818-24.91 3.256-24.91 13.34v50.622c0 15.534-12.59 28.127-28.13 28.127h-.93Zm29.44-184.933c0 9.309 1.89 17.612 5.66 24.909 4.03 7.045 9.43 12.58 16.23 16.606 7.04 3.774 15.09 5.661 24.15 5.661 9.31 0 17.24-2.012 23.78-6.038 6.79-4.026 11.95-9.561 15.47-16.606 3.78-7.046 5.67-15.223 5.67-24.532 0-9.31-1.89-17.487-5.67-24.532-3.52-7.046-8.68-12.581-15.47-16.607-6.54-4.025-14.47-6.038-23.78-6.038-9.06 0-17.11 2.013-24.15 6.038-6.8 3.774-12.2 9.184-16.23 16.229-3.77 7.045-5.66 15.348-5.66 24.91Z" fill="#000"></path></svg>